M48
; DRILL file KiCad 10.0.3 date 2026-06-17T15:32:03
; FORMAT={-:-/ absolute / metric / decimal}
; #@! TF.CreationDate,2026-06-17T15:32:03+05:30
; #@! TF.GenerationSoftware,Kicad,Pcbnew,10.0.3
; #@! TF.FileFunction,Plated,1,2,PTH
FMAT,2
METRIC
; #@! TA.AperFunction,Plated,PTH,ComponentDrill
T1C0.800
; #@! TA.AperFunction,Plated,PTH,ComponentDrill
T2C1.000
; #@! TA.AperFunction,Plated,PTH,ComponentDrill
T3C1.524
%
G90
G05
T1
X47.5Y-254.0
X47.5Y-261.62
X47.5Y-280.38
X47.5Y-288.0
X52.25Y-365.88
X52.25Y-373.5
X57.0Y-302.13
X57.0Y-309.75
X61.5Y-322.88
X61.5Y-330.5
X66.25Y-345.25
X66.25Y-352.87
X66.5Y-281.25
X66.5Y-288.87
X74.75Y-253.88
X74.75Y-261.5
X76.0Y-302.5
X76.0Y-310.12
X76.5Y-366.44
X76.5Y-374.06
X80.5Y-323.75
X80.5Y-331.37
X85.5Y-345.0
X85.5Y-352.62
X85.75Y-280.63
X85.75Y-288.25
X93.75Y-253.75
X93.75Y-261.37
X95.5Y-302.25
X95.5Y-309.87
X99.75Y-323.75
X99.75Y-331.37
X100.0Y-366.0
X100.0Y-373.62
X104.25Y-281.0
X104.25Y-288.62
X104.25Y-345.69
X104.25Y-353.31
X113.25Y-253.69
X113.25Y-261.31
X114.5Y-301.75
X114.5Y-309.37
X118.75Y-323.75
X118.75Y-331.37
X123.5Y-346.0
X123.5Y-353.62
X123.75Y-279.75
X123.75Y-287.37
X132.5Y-253.63
X132.5Y-261.25
X133.0Y-301.63
X133.0Y-309.25
X137.75Y-322.88
X137.75Y-330.5
X142.75Y-279.75
X142.75Y-287.37
X142.75Y-345.13
X142.75Y-352.75
X152.25Y-301.75
X152.25Y-309.37
X156.75Y-324.0
X156.75Y-331.62
X160.25Y-254.5
X160.25Y-262.12
X161.75Y-280.13
X161.75Y-287.75
X162.0Y-344.88
X162.0Y-352.5
X171.5Y-302.5
X171.5Y-310.12
X176.0Y-324.0
X176.0Y-331.62
X179.0Y-253.88
X179.0Y-261.5
X180.5Y-280.25
X180.5Y-287.87
X181.0Y-345.0
X181.0Y-352.62
X190.25Y-301.75
X190.25Y-309.37
X195.0Y-323.5
X195.0Y-331.12
X198.5Y-254.25
X198.5Y-261.87
X200.0Y-280.5
X200.0Y-288.12
X200.0Y-346.0
X200.0Y-353.62
X209.75Y-301.88
X209.75Y-309.5
X214.25Y-324.5
X214.25Y-332.12
X214.25Y-365.88
X214.25Y-373.5
X217.25Y-254.0
X217.25Y-261.62
X218.75Y-280.25
X218.75Y-287.87
X219.25Y-344.5
X219.25Y-352.12
X228.75Y-301.75
X228.75Y-309.37
X233.0Y-323.44
X233.0Y-331.06
X238.0Y-280.13
X238.0Y-287.75
X238.0Y-366.69
X238.0Y-374.31
X238.25Y-344.13
X238.25Y-351.75
X244.75Y-254.5
X244.75Y-262.12
X247.5Y-301.38
X247.5Y-309.0
X252.25Y-323.25
X252.25Y-330.87
X257.0Y-280.13
X257.0Y-287.75
X257.5Y-344.88
X257.5Y-352.5
X261.5Y-365.94
X261.5Y-373.56
X263.75Y-253.69
X263.75Y-261.31
X266.75Y-301.63
X266.75Y-309.25
X271.75Y-323.69
X271.75Y-331.31
X276.25Y-280.0
X276.25Y-287.62
X282.25Y-253.88
X282.25Y-261.5
X286.0Y-302.5
X286.0Y-310.12
X295.5Y-344.75
X295.5Y-352.37
X295.5Y-366.94
X295.5Y-374.56
X301.75Y-253.63
X301.75Y-261.25
X314.25Y-280.25
X314.25Y-287.87
X314.5Y-301.94
X314.5Y-309.56
X314.75Y-344.25
X314.75Y-351.87
X314.75Y-366.44
X314.75Y-374.06
X315.0Y-324.0
X315.0Y-331.62
X333.25Y-279.94
X333.25Y-287.56
X333.5Y-366.44
X333.5Y-374.06
X334.0Y-302.25
X334.0Y-309.87
X334.0Y-324.0
X334.0Y-331.62
X334.0Y-345.0
X334.0Y-352.62
T2
X344.604Y-241.596
X344.604Y-244.136
X344.604Y-246.676
X344.604Y-249.216
X344.604Y-251.756
X344.604Y-254.296
X344.604Y-256.836
X344.604Y-259.376
X344.604Y-261.916
X344.604Y-264.456
X344.604Y-266.996
X344.604Y-269.536
X344.604Y-272.076
X344.604Y-274.616
X344.604Y-277.156
X344.604Y-279.696
X344.604Y-282.236
X344.604Y-284.776
X344.604Y-287.316
X344.604Y-289.856
X362.384Y-241.596
X362.384Y-244.136
X362.384Y-246.676
X362.384Y-249.216
X362.384Y-251.756
X362.384Y-254.296
X362.384Y-256.836
X362.384Y-259.376
X362.384Y-261.916
X362.384Y-264.456
X362.384Y-266.996
X362.384Y-269.536
X362.384Y-272.076
X362.384Y-274.616
X362.384Y-277.156
X362.384Y-279.696
X362.384Y-282.236
X362.384Y-284.776
X362.384Y-287.316
X362.384Y-289.856
T3
X33.82Y-255.96
X34.098Y-282.379
X36.443Y-368.453
X38.783Y-304.139
X40.17Y-253.42
X40.448Y-279.839
X41.167Y-325.753
X42.793Y-365.913
X43.52Y-346.96
X45.133Y-301.599
X47.517Y-323.213
X49.87Y-344.42
X53.148Y-282.379
X59.498Y-279.839
X60.493Y-368.453
X61.37Y-255.96
X62.688Y-303.987
X66.843Y-365.913
X67.217Y-325.753
X67.72Y-253.42
X69.038Y-301.447
X72.011Y-347.113
X72.198Y-282.379
X73.567Y-323.213
X78.361Y-344.573
X78.548Y-279.839
X80.42Y-255.96
X81.842Y-304.095
X84.293Y-368.453
X86.25Y-325.901
X86.77Y-253.42
X88.192Y-301.555
X90.643Y-365.913
X91.061Y-347.113
X91.248Y-282.379
X92.6Y-323.361
X97.411Y-344.573
X97.598Y-279.839
X99.792Y-255.952
X100.892Y-304.095
X105.3Y-325.901
X106.142Y-253.412
X107.242Y-301.555
X110.164Y-347.113
X110.298Y-282.379
X111.65Y-323.361
X116.514Y-344.573
X116.648Y-279.839
X118.842Y-255.952
X119.894Y-304.095
X124.35Y-325.901
X125.192Y-253.412
X126.244Y-301.555
X129.348Y-282.379
X129.395Y-347.113
X130.7Y-323.361
X135.698Y-279.839
X135.745Y-344.573
X138.913Y-304.095
X143.4Y-325.901
X145.263Y-301.555
X146.892Y-255.952
X148.398Y-282.379
X148.533Y-347.132
X149.75Y-323.361
X153.116Y-368.277
X153.242Y-253.412
X154.748Y-279.839
X154.883Y-344.592
X157.963Y-304.095
X159.466Y-365.737
X162.45Y-325.901
X164.313Y-301.555
X165.942Y-255.952
X167.453Y-282.352
X167.583Y-347.132
X168.8Y-323.361
X172.292Y-253.412
X173.803Y-279.812
X173.933Y-344.592
X177.011Y-303.99
X181.603Y-325.824
X183.361Y-301.45
X184.992Y-255.952
X186.503Y-282.352
X186.633Y-347.132
X187.953Y-323.284
X191.342Y-253.412
X192.853Y-279.812
X192.983Y-344.592
X196.24Y-304.095
X200.653Y-325.824
X202.59Y-301.555
X204.042Y-255.952
X205.553Y-282.352
X205.81Y-346.96
X207.003Y-323.284
X210.392Y-253.412
X211.903Y-279.812
X212.16Y-344.42
X215.321Y-304.095
X219.703Y-325.824
X221.671Y-301.555
X222.161Y-368.22
X224.692Y-282.385
X224.86Y-346.96
X226.053Y-323.284
X228.511Y-365.68
X231.042Y-279.845
X231.155Y-256.083
X231.21Y-344.42
X234.325Y-304.095
X237.505Y-253.543
X238.753Y-325.824
X240.675Y-301.555
X243.742Y-282.385
X244.11Y-346.96
X245.103Y-323.284
X246.186Y-368.229
X250.092Y-279.845
X250.183Y-256.055
X250.46Y-344.42
X252.536Y-365.689
X253.375Y-304.095
X256.533Y-253.515
X257.803Y-325.824
X259.725Y-301.555
X262.792Y-282.385
X264.153Y-323.284
X269.138Y-255.91
X269.142Y-279.845
X272.532Y-346.921
X272.57Y-304.092
X275.488Y-253.37
X278.882Y-344.381
X278.92Y-301.552
X282.232Y-368.103
X288.283Y-256.055
X288.582Y-365.563
X289.326Y-325.757
X291.327Y-282.462
X294.633Y-253.515
X295.676Y-323.217
X296.455Y-304.022
X297.677Y-279.922
X301.151Y-368.161
X301.482Y-346.853
X302.805Y-301.482
X307.501Y-365.621
X307.832Y-344.313
X319.841Y-282.405
X320.015Y-368.122
X320.416Y-304.292
X320.621Y-325.617
X320.782Y-346.882
X326.191Y-279.865
X326.365Y-365.582
X326.766Y-301.752
X326.971Y-323.077
X327.132Y-344.342
M30
