M48
; DRILL file KiCad 10.0.3 date 2026-06-17T15:32:03
; FORMAT={-:-/ absolute / metric / decimal}
; #@! TF.CreationDate,2026-06-17T15:32:03+05:30
; #@! TF.GenerationSoftware,Kicad,Pcbnew,10.0.3
; #@! TF.FileFunction,NonPlated,1,2,NPTH
FMAT,2
METRIC
; #@! TA.AperFunction,NonPlated,NPTH,ComponentDrill
T1C1.152
; #@! TA.AperFunction,NonPlated,NPTH,ComponentDrill
T2C1.750
; #@! TA.AperFunction,NonPlated,NPTH,ComponentDrill
T3C3.048
; #@! TA.AperFunction,NonPlated,NPTH,ComponentDrill
T4C3.988
%
G90
G05
T1
X29.0Y-381.5
X31.0Y-243.5
X365.0Y-379.5
X368.0Y-242.5
T2
X32.55Y-258.5
X32.828Y-284.919
X35.173Y-370.993
X37.513Y-306.679
X39.897Y-328.293
X42.25Y-349.5
X42.71Y-258.5
X42.988Y-284.919
X45.333Y-370.993
X47.673Y-306.679
X50.057Y-328.293
X51.878Y-284.919
X52.41Y-349.5
X59.223Y-370.993
X60.1Y-258.5
X61.418Y-306.527
X62.038Y-284.919
X65.947Y-328.293
X69.383Y-370.993
X70.26Y-258.5
X70.741Y-349.653
X70.928Y-284.919
X71.578Y-306.527
X76.107Y-328.293
X79.15Y-258.5
X80.572Y-306.635
X80.901Y-349.653
X81.088Y-284.919
X83.023Y-370.993
X84.98Y-328.441
X89.31Y-258.5
X89.791Y-349.653
X89.978Y-284.919
X90.732Y-306.635
X93.183Y-370.993
X95.14Y-328.441
X98.522Y-258.492
X99.622Y-306.635
X99.951Y-349.653
X100.138Y-284.919
X104.03Y-328.441
X108.682Y-258.492
X108.894Y-349.653
X109.028Y-284.919
X109.782Y-306.635
X114.19Y-328.441
X117.572Y-258.492
X118.624Y-306.635
X119.054Y-349.653
X119.188Y-284.919
X123.08Y-328.441
X127.732Y-258.492
X128.078Y-284.919
X128.125Y-349.653
X128.784Y-306.635
X133.24Y-328.441
X137.643Y-306.635
X138.238Y-284.919
X138.285Y-349.653
X142.13Y-328.441
X145.622Y-258.492
X147.128Y-284.919
X147.263Y-349.672
X147.803Y-306.635
X151.846Y-370.817
X152.29Y-328.441
X155.782Y-258.492
X156.693Y-306.635
X157.288Y-284.919
X157.423Y-349.672
X161.18Y-328.441
X162.006Y-370.817
X164.672Y-258.492
X166.183Y-284.892
X166.313Y-349.672
X166.853Y-306.635
X171.34Y-328.441
X174.832Y-258.492
X175.741Y-306.53
X176.343Y-284.892
X176.473Y-349.672
X180.333Y-328.364
X183.722Y-258.492
X185.233Y-284.892
X185.363Y-349.672
X185.901Y-306.53
X190.493Y-328.364
X193.882Y-258.492
X194.97Y-306.635
X195.393Y-284.892
X195.523Y-349.672
X199.383Y-328.364
X202.772Y-258.492
X204.283Y-284.892
X204.54Y-349.5
X205.13Y-306.635
X209.543Y-328.364
X212.932Y-258.492
X214.051Y-306.635
X214.443Y-284.892
X214.7Y-349.5
X218.433Y-328.364
X220.891Y-370.76
X223.422Y-284.925
X223.59Y-349.5
X224.211Y-306.635
X228.593Y-328.364
X229.885Y-258.623
X231.051Y-370.76
X233.055Y-306.635
X233.582Y-284.925
X233.75Y-349.5
X237.483Y-328.364
X240.045Y-258.623
X242.472Y-284.925
X242.84Y-349.5
X243.215Y-306.635
X244.916Y-370.769
X247.643Y-328.364
X248.913Y-258.595
X252.105Y-306.635
X252.632Y-284.925
X253.0Y-349.5
X255.076Y-370.769
X256.533Y-328.364
X259.073Y-258.595
X261.522Y-284.925
X262.265Y-306.635
X266.693Y-328.364
X267.868Y-258.45
X271.262Y-349.461
X271.3Y-306.632
X271.682Y-284.925
X278.028Y-258.45
X280.962Y-370.643
X281.422Y-349.461
X281.46Y-306.632
X287.013Y-258.595
X288.056Y-328.297
X290.057Y-285.002
X291.122Y-370.643
X295.185Y-306.562
X297.173Y-258.595
X298.216Y-328.297
X299.881Y-370.701
X300.212Y-349.393
X300.217Y-285.002
X305.345Y-306.562
X310.041Y-370.701
X310.372Y-349.393
X318.571Y-284.945
X318.745Y-370.662
X319.146Y-306.832
X319.351Y-328.157
X319.512Y-349.422
X328.731Y-284.945
X328.905Y-370.662
X329.306Y-306.832
X329.511Y-328.157
X329.672Y-349.422
T3
X35.378Y-342.541
X59.191Y-342.541
X109.301Y-363.832
X204.551Y-363.832
X264.584Y-342.478
X281.26Y-321.245
X283.231Y-278.017
X288.396Y-342.478
X305.072Y-321.245
X307.044Y-278.017
T4
X35.378Y-357.781
X37.63Y-258.5
X37.908Y-284.919
X40.253Y-370.993
X42.593Y-306.679
X44.977Y-328.293
X47.33Y-349.5
X56.958Y-284.919
X59.191Y-357.781
X64.303Y-370.993
X65.18Y-258.5
X66.498Y-306.527
X71.027Y-328.293
X75.821Y-349.653
X76.008Y-284.919
X84.23Y-258.5
X85.652Y-306.635
X88.103Y-370.993
X90.06Y-328.441
X94.871Y-349.653
X95.058Y-284.919
X103.602Y-258.492
X104.702Y-306.635
X109.11Y-328.441
X109.301Y-379.072
X113.974Y-349.653
X114.108Y-284.919
X122.652Y-258.492
X123.704Y-306.635
X128.16Y-328.441
X133.158Y-284.919
X133.205Y-349.653
X142.723Y-306.635
X147.21Y-328.441
X150.702Y-258.492
X152.208Y-284.919
X152.343Y-349.672
X156.926Y-370.817
X161.773Y-306.635
X166.26Y-328.441
X169.752Y-258.492
X171.263Y-284.892
X171.393Y-349.672
X180.821Y-306.53
X185.413Y-328.364
X188.802Y-258.492
X190.313Y-284.892
X190.443Y-349.672
X200.05Y-306.635
X204.463Y-328.364
X204.551Y-379.072
X207.852Y-258.492
X209.363Y-284.892
X209.62Y-349.5
X219.131Y-306.635
X223.513Y-328.364
X225.971Y-370.76
X228.502Y-284.925
X228.67Y-349.5
X234.965Y-258.623
X238.135Y-306.635
X242.563Y-328.364
X247.552Y-284.925
X247.92Y-349.5
X249.996Y-370.769
X253.993Y-258.595
X257.185Y-306.635
X261.613Y-328.364
X264.584Y-357.718
X266.602Y-284.925
X272.948Y-258.45
X276.342Y-349.461
X276.38Y-306.632
X281.26Y-336.485
X283.231Y-293.257
X286.042Y-370.643
X288.396Y-357.718
X292.093Y-258.595
X293.136Y-328.297
X295.137Y-285.002
X300.265Y-306.562
X304.961Y-370.701
X305.072Y-336.485
X305.292Y-349.393
X307.044Y-293.257
X323.651Y-284.945
X323.825Y-370.662
X324.226Y-306.832
X324.431Y-328.157
X324.592Y-349.422
M30
